# xmcd
#
# Track frame offsets: 
#        150
#        17186
#        36252
#        52254
#        67303
#        87812
#        102124
#        119092
#        132966
#        143751
#
# Disc length: 2119 seconds
#
# Revision: 0
# Processed by: cddbd v1.5.2PL0 Copyright (c) Steve Scherf et al.
# Submitted via: ExactAudioCopy v0.99pb4
#
DISCID=9608450a
DTITLE=ไชโย  ธนาวัฒน์ - 2008
DYEAR=2008
DGENRE=Country
TTITLE0=หนุ่มเมืองเพชร
TTITLE1=ฟ้าหม่นคนหมอง
TTITLE2=หิ่งห้อยกับตะวัน
TTITLE3=ไอ้หนุ่มหน้าบ้าน
TTITLE4=ฝนตกแดดออก
TTITLE5=แมวขโมย
TTITLE6=รักตึ๋งหนืด
TTITLE7=คนหน้าโง่
TTITLE8=คนบ้านนอกหลอกกันเอง
TTITLE9=หนึ่งเดียวในใจ
EXTD=
EXTT0=
EXTT1=
EXTT2=
EXTT3=
EXTT4=
EXTT5=
EXTT6=
EXTT7=
EXTT8=
EXTT9=
PLAYORDER=
